<?xml version="1.0" encoding="utf-8"?>
<!-- Generator: Adobe Illustrator 22.0.1, SVG Export Plug-In . SVG Version: 6.00 Build 0)  -->
<svg version="1.1" id="Layer_1" xmlns="http://www.w3.org/2000/svg" xmlns:xlink="http://www.w3.org/1999/xlink" x="0px" y="0px"
	 viewBox="0 0 57.3 60.3" style="enable-background:new 0 0 57.3 60.3;" xml:space="preserve">
<style type="text/css">
	.st0{fill:#349AB5;}
</style>
<g>
	<path class="st0" d="M48.9,45.9c-1.3,0-2.4,1-2.4,2.3c0,1.3,1,2.3,2.4,2.3c1.4,0,2.4-1,2.4-2.3C51.3,47,50.2,45.9,48.9,45.9z"/>
	<path class="st0" d="M0,0v60.3h57.3V0H0z M26.4,53.5c-4.1,0-8.1,0-12.1,0c0-5.9,0-11.8,0-17.7c3.9,0,7.8,0,11.7,0c0,1,0,2,0,3
		c0,0.1-0.3,0.3-0.5,0.3c-2.1,0-4.3,0-6.4,0c-0.3,0-0.7,0-1.1,0c0,0.7,0,1.4,0,2c0,1,0,1.9,0,2.9c0,0.5,0.2,0.6,0.6,0.6
		c1.9,0,3.8,0,5.7,0c0.2,0,0.5,0,0.7,0c0,1.1,0,2,0,3.1c-0.2,0-0.5,0-0.7,0c-1.9,0-3.8,0-5.7,0c-0.6,0-0.8,0.2-0.7,0.8
		c0,0.4,0,0.8,0,1.1c0,0.5,0.2,0.6,0.6,0.6c2.4,0,4.8,0,7.1,0c0.5,0,0.7,0.1,0.7,0.7C26.3,51.7,26.4,52.6,26.4,53.5z M40.4,51.1
		c-0.6,1-1.4,1.7-2.5,2.1c-2.5,0.9-4.9,0.7-7.2-0.6c-1.1-0.6-1.9-1.5-2.4-2.7c1-0.6,2-1.2,3-1.7c0.2,0.3,0.4,0.6,0.6,0.8
		c1.1,1.3,2.4,1.7,4,1.3c0.7-0.2,1.3-0.6,1.4-1.4c0.1-0.8-0.3-1.4-0.9-1.7c-0.9-0.5-1.9-0.8-2.8-1.3c-0.9-0.5-1.8-0.9-2.6-1.6
		c-1.6-1.4-1.9-3.3-1.4-5.2c0.5-1.9,1.8-2.9,3.7-3.3c1.2-0.3,2.4-0.2,3.6,0.1c1.4,0.4,2.4,1.3,3.2,2.7c-1,0.6-1.9,1.2-2.9,1.9
		c-0.2-0.3-0.4-0.5-0.6-0.7c-0.6-0.7-1.3-1-2.2-0.8c-0.6,0.1-1.1,0.5-1.2,1.1c-0.2,0.6,0,1.3,0.5,1.6c0.5,0.4,1.1,0.6,1.7,0.9
		c1.1,0.5,2.2,1,3.2,1.6C41,45.6,41.8,48.7,40.4,51.1z M54.9,48.7c-0.3,3.7-3.6,5.4-6.8,5c-1.6-0.2-3.1-0.8-4.1-2.1
		c-1.5-1.8-1.5-3.8-0.7-5.9c0.4-0.9,0.9-1.8,1.5-2.6c1.2-1.7,2.4-3.4,3.6-5.1c0.2-0.3,0.5-0.5,0.9-0.5c1,0,1.9,0,2.9,0
		c0.2,0,0.3,0,0.7,0.1c-1.5,1.9-2.8,3.8-4.2,5.6c0.8,0,1.6-0.1,2.5,0C53.8,43.8,55.1,46.1,54.9,48.7z"/>
</g>
</svg>
