<?xml version="1.0" encoding="UTF-8"?>
<svg width="319px" height="373px" viewBox="0 0 319 373" version="1.1" xmlns="http://www.w3.org/2000/svg" xmlns:xlink="http://www.w3.org/1999/xlink">
    <!-- Generator: Sketch 49.1 (51147) - http://www.bohemiancoding.com/sketch -->
    <title>icon-design</title>
    <desc>Created with Sketch.</desc>
    <defs></defs>
    <g id="icon-design" stroke="none" stroke-width="1" fill="none" fill-rule="evenodd">
        <path d="M76,72 C69.9248678,72 65,76.9248678 65,83 L65,290 C65,296.075132 69.9248678,301 76,301 L245,301 C251.075132,301 256,296.075132 256,290 L256,83 C256,76.9248678 251.075132,72 245,72 L76,72 Z M76,58 L245,58 C258.807119,58 270,69.1928813 270,83 L270,290 C270,303.807119 258.807119,315 245,315 L76,315 C62.1928813,315 51,303.807119 51,290 L51,83 C51,69.1928813 62.1928813,58 76,58 Z" id="Rectangle-7" fill="#000000" fill-rule="nonzero"></path>
        <path d="M76,59 L243.079628,60.279123 L243.079628,182.083307 C243.079628,195.44264 232.249748,206.27252 218.890415,206.27252 C205.531081,206.27252 194.701201,195.44264 194.701201,182.083307 L194.701201,152.417555 C194.701201,149.955239 192.705099,147.959137 190.242783,147.959137 C187.780466,147.959137 185.784364,149.955239 185.784364,152.417555 L185.784364,209.907126 C185.784364,223.2505 174.967423,234.067442 161.624049,234.067442 C148.280675,234.067442 137.463733,223.2505 137.463733,209.907126 L137.463733,102.74905 C137.463733,98.1597243 133.74335,94.4393408 129.154024,94.4393408 C124.564698,94.4393408 120.844315,98.1597243 120.844315,102.74905 L120.844315,118.296728 C120.844315,130.680144 110.805573,140.718886 98.4221575,140.718886 C86.0387418,140.718886 76,130.680144 76,118.296728 L76,59 Z M89,72.099906 L89,118.296728 C89,123.500442 93.2184436,127.718886 98.4221575,127.718886 C103.625871,127.718886 107.844315,123.500442 107.844315,118.296728 L107.844315,102.74905 C107.844315,90.9800225 117.384997,81.4393408 129.154024,81.4393408 C140.923051,81.4393408 150.463733,90.9800225 150.463733,102.74905 L150.463733,209.907126 C150.463733,216.070798 155.460377,221.067442 161.624049,221.067442 C167.787721,221.067442 172.784364,216.070798 172.784364,209.907126 L172.784364,152.417555 C172.784364,142.775537 180.600765,134.959137 190.242783,134.959137 C199.884801,134.959137 207.701201,142.775537 207.701201,152.417555 L207.701201,182.083307 C207.701201,188.262938 212.710783,193.27252 218.890415,193.27252 C225.070046,193.27252 230.079628,188.262938 230.079628,182.083307 L230.079628,73.1799789 L89,72.099906 Z" id="Path-3" fill="#000000" fill-rule="nonzero"></path>
        <path d="M55.0011502,130 L55.0011502,143 L34.5,143 C33.6715729,143 33,143.671573 33,144.5 L33.000001,183.34557 C33.000001,186.899602 33.6014536,190.428007 34.7788835,193.781334 C51.2349782,240.648387 92.0975555,264.042969 158.961784,264.042969 C225.665019,264.042969 267.159097,240.741951 284.936104,194.077116 C286.300397,190.495834 286.999725,186.695653 286.999725,182.863305 L286.999725,144.5 C286.999725,143.671573 286.328152,143 285.499725,143 L266.40304,143 L266.40304,130 L285.499725,130 C293.507854,130 299.999725,136.491871 299.999725,144.5 L299.999725,182.863305 C299.999725,188.277258 299.011785,193.645768 297.08445,198.70504 C277.197159,250.909393 230.658908,277.042969 158.961784,277.042969 C87.0004451,277.042969 40.9858029,250.698735 22.5130255,198.088157 C20.8496722,193.350917 20.000001,188.366345 20.000001,183.34557 L20,144.5 C20,136.491871 26.4918711,130 34.5,130 L55.0011502,130 Z" id="Path-4" fill="#000000" fill-rule="nonzero"></path>
    </g>
</svg>