<?xml version="1.0" encoding="UTF-8"?>
<svg width="131px" height="153px" viewBox="0 0 131 153" version="1.1" xmlns="http://www.w3.org/2000/svg" xmlns:xlink="http://www.w3.org/1999/xlink">
    <!-- Generator: Sketch 49.1 (51147) - http://www.bohemiancoding.com/sketch -->
    <title>icon-webdev</title>
    <desc>Created with Sketch.</desc>
    <defs></defs>
    <g id="icon-webdev" stroke="none" stroke-width="1" fill="none" fill-rule="evenodd">
        <g id="Group-4" transform="translate(0.000000, 22.000000)">
            <g id="Group" transform="translate(0.000000, 13.182390)" fill="#000000" fill-rule="nonzero">
                <path d="M125.541667,93.3016405 L5.45833333,93.3016405 C2.45625,93.3016405 0,90.8318912 0,87.8133087 L0,5.4883318 C0,2.46974931 2.45625,0 5.45833333,0 L125.541667,0 C128.54375,0 131,2.46974931 131,5.4883318 L131,87.5388921 C131,90.8318912 128.54375,93.3016405 125.541667,93.3016405 Z M5.45833333,5.4883318 L5.45833333,87.5388921 L125.541667,87.5388921 L125.541667,5.4883318 L5.45833333,5.4883318 Z" id="Shape"></path>
                <path d="M128.270833,71.2226264 L2.72916667,71.2226264 C1.09166667,71.2226264 0,70.0830643 0,68.3737213 C0,66.6643783 1.09166667,65.5248162 2.72916667,65.5248162 L128.270833,65.5248162 C129.908333,65.5248162 131,66.6643783 131,68.3737213 C131,70.0830643 129.908333,71.2226264 128.270833,71.2226264 Z" id="Shape"></path>
                <g transform="translate(27.054348, 87.303554)" id="Shape">
                    <path d="M63.1200311,30.2731318 L13.0593168,30.2731318 L19.5889752,0.240924389 L56.5903727,0.240924389 L63.1200311,30.2731318 Z M19.5889752,24.8127305 L56.3183036,24.8127305 L51.965198,5.70132574 L23.9420807,5.70132574 L19.5889752,24.8127305 Z"></path>
                    <path d="M73.4586568,30.2731318 L2.72069099,30.2731318 C1.0882764,30.2731318 0,29.1810516 0,27.5429312 C0,25.9048108 1.0882764,24.8127305 2.72069099,24.8127305 L73.4586568,24.8127305 C75.0910714,24.8127305 76.1793478,25.9048108 76.1793478,27.5429312 C76.1793478,29.1810516 75.0910714,30.2731318 73.4586568,30.2731318 Z"></path>
                </g>
            </g>
            <rect id="Rectangle" fill="#FFFFFF" x="98.1473354" y="0" width="13.5517241" height="30.072327"></rect>
            <rect id="Rectangle-Copy" fill="#FFFFFF" x="67.3479624" y="0" width="21.7648903" height="49.0220126"></rect>
            <ellipse id="Oval" fill="#000000" cx="63.8573668" cy="92.0707547" rx="3.49059561" ry="3.50157233"></ellipse>
        </g>
        <path d="M67.2701562,21.948592 L67.2701562,16.5991295 L77.9347163,16.5991295 C79.4119296,16.5991295 80.6094476,17.7966474 80.6094476,19.2738607 L80.6094476,19.2738607 C80.6094476,20.751074 79.4119296,21.948592 77.9347163,21.948592 L67.2701562,21.948592 Z" id="Line" fill="#000000" fill-rule="nonzero"></path>
        <path d="M67.2701562,35.9268063 L67.2701562,30.5773437 L77.9347163,30.5773437 C79.4119296,30.5773437 80.6094476,31.7748617 80.6094476,33.252075 L80.6094476,33.252075 C80.6094476,34.7292883 79.4119296,35.9268063 77.9347163,35.9268063 L67.2701562,35.9268063 Z" id="Line-Copy" fill="#000000" fill-rule="nonzero"></path>
        <path d="M67.2701562,49.0313822 L67.2701562,43.6819196 L77.9347163,43.6819196 C79.4119296,43.6819196 80.6094476,44.8794376 80.6094476,46.3566509 L80.6094476,46.3566509 C80.6094476,47.8338642 79.4119296,49.0313822 77.9347163,49.0313822 L67.2701562,49.0313822 Z" id="Line-Copy-2" fill="#000000" fill-rule="nonzero"></path>
        <path d="M67.2701562,63.0095965 L67.2701562,57.6601339 L77.9347163,57.6601339 C79.4119296,57.6601339 80.6094476,58.8576519 80.6094476,60.3348652 L80.6094476,60.3348652 C80.6094476,61.8120785 79.4119296,63.0095965 77.9347163,63.0095965 L67.2701562,63.0095965 Z" id="Line-Copy-3" fill="#000000" fill-rule="nonzero"></path>
        <path d="M67.2701562,76.1141724 L67.2701562,70.7647098 L77.9347163,70.7647098 C79.4119296,70.7647098 80.6094476,71.9622278 80.6094476,73.4394411 L80.6094476,73.4394411 C80.6094476,74.9166544 79.4119296,76.1141724 77.9347163,76.1141724 L67.2701562,76.1141724 Z" id="Line-Copy-4" fill="#000000" fill-rule="nonzero"></path>
        <path d="M71.6949153,5.32599119 C71.4702571,5.32599119 71.2881356,5.50941638 71.2881356,5.73568282 L71.2881356,87.2643172 C71.2881356,87.4905836 71.4702571,87.6740088 71.6949153,87.6740088 L84.3050847,87.6740088 C84.5297429,87.6740088 84.7118644,87.4905836 84.7118644,87.2643172 L84.7118644,5.73568282 C84.7118644,5.50941638 84.5297429,5.32599119 84.3050847,5.32599119 L71.6949153,5.32599119 Z M71.6949153,0 L84.3050847,0 C87.4502996,-5.45818897e-16 90,2.56795267 90,5.73568282 L90,87.2643172 C90,90.4320473 87.4502996,93 84.3050847,93 L71.6949153,93 C68.5497004,93 66,90.4320473 66,87.2643172 L66,5.73568282 C66,2.56795267 68.5497004,5.45818897e-16 71.6949153,0 Z" id="Rectangle-6" fill="#000000" fill-rule="nonzero"></path>
        <path d="M106.74321,14.0481746 L103.246413,20.5211889 C103.213957,20.5812698 103.196963,20.6484835 103.196963,20.7167706 L103.196963,76.8697743 C103.196963,77.0970379 103.381196,77.2812714 103.60846,77.2812714 L110.192414,77.2812714 C110.419677,77.2812714 110.603911,77.0970379 110.603911,76.8697743 L110.603911,20.8108518 C110.603911,20.7383013 110.584729,20.6670404 110.548311,20.6042925 L106.74321,14.0481746 Z M104.131644,7.62743179 C104.887761,6.22776243 106.635372,5.70606061 108.035041,6.46217816 C108.502294,6.71459376 108.89067,7.0912715 109.157253,7.55058915 L115.174981,17.9190226 C115.684836,18.7974923 115.953373,19.7951448 115.953373,20.8108518 L115.953373,76.8697743 C115.953373,80.0514644 113.374104,82.6307339 110.192414,82.6307339 L103.60846,82.6307339 C100.42677,82.6307339 97.8475,80.0514644 97.8475,76.8697743 L97.8475,20.7167706 C97.8475,19.7607508 98.085419,18.8197593 98.5398085,17.9786267 L104.131644,7.62743179 Z" id="Rectangle-8" fill="#000000" fill-rule="nonzero"></path>
    </g>
</svg>