<?xml version="1.0" encoding="utf-8"?>
<!-- Generator: Adobe Illustrator 22.0.1, SVG Export Plug-In . SVG Version: 6.00 Build 0)  -->
<svg version="1.1" id="Layer_1" xmlns="http://www.w3.org/2000/svg" xmlns:xlink="http://www.w3.org/1999/xlink" x="0px" y="0px"
	 viewBox="0 0 62.3 60.8" style="enable-background:new 0 0 62.3 60.8;" xml:space="preserve">
<style type="text/css">
	.st0{fill:#349AB5;}
</style>
<title>icon-webdev</title>
<desc>Created with Sketch.</desc>
<path class="st0" d="M0,60.8C0,40.5,0,20.3,0,0c20.8,0,41.6,0,62.3,0c0,20.3,0,40.5,0,60.8C41.6,60.8,20.8,60.8,0,60.8z M59.7,58.1
	c0-18.5,0-37,0-55.4c-19,0-38,0-57,0c0,18.5,0,37,0,55.4C21.7,58.1,40.7,58.1,59.7,58.1z"/>
<g>
	<path class="st0" d="M-158.2,48.4c0-20.3,0-40.5,0-60.8c20.8,0,41.6,0,62.3,0c0,20.3,0,40.5,0,60.8
		C-116.6,48.4-137.4,48.4-158.2,48.4z M-98.5,45.8c0-18.5,0-37,0-55.4c-19,0-38,0-57,0c0,18.5,0,37,0,55.4
		C-136.5,45.8-117.5,45.8-98.5,45.8z"/>
	<path class="st0" d="M-143,15.9c0-4.5,0-9,0-13.5c0-0.6,0.1-0.7,0.7-0.7c2.6,0,5.2-0.1,7.8-0.1c2.2,0.1,4.2,0.6,5.9,2
		c1.6,1.3,2.4,3,2.7,5c0.3,2,0.2,4-0.6,5.9c-1.1,2.6-3.1,4.1-5.7,4.9c-1.8,0.6-3.7,0.6-5.6,0.5c-0.7,0-0.6-0.1-0.6,0.6
		c0,3,0,6.1,0,9.1c0,0.6,0,0.6-0.6,0.6c-1.1,0-2.3,0-3.4,0c-0.6,0-0.6,0-0.6-0.6C-143,24.9-143,20.4-143,15.9z M-138.5,15.7
		c0.1,0,0.2,0.1,0.3,0.1c1.3,0.1,2.7,0.1,4-0.2c1.8-0.4,3.1-1.4,3.5-3.2c0.2-0.6,0.2-1.3,0.2-2c0-2.5-1.5-4.2-4-4.6
		c-1.2-0.1-2.4-0.1-3.6-0.1c-0.4,0-0.5,0.1-0.5,0.5c0,3.1,0,6.1,0,9.2C-138.5,15.4-138.5,15.5-138.5,15.7z"/>
	<path class="st0" d="M-123.2,24.9c0.2,0.1,0.3,0.2,0.4,0.2c1.7,1,3.5,1.5,5.4,1.4c0.5,0,0.9-0.1,1.3-0.3c1.3-0.5,1.6-2,0.7-3
		c-0.6-0.6-1.3-1.1-2-1.5c-1.1-0.7-2.3-1.3-3.4-2c-3.2-2.2-3-6.4-1.3-8.5c1.2-1.4,2.7-2.2,4.5-2.4c1.8-0.2,3.5-0.1,5.2,0.3
		c0.2,0,0.3,0.1,0.5,0.2c0.4,0.1,0.6,0.4,0.6,0.8c0,1.1,0,2.2,0,3.2c0,0.4-0.1,0.5-0.5,0.3c-1.6-0.9-3.4-1.2-5.2-1
		c-0.3,0-0.7,0.2-1,0.3c-1.1,0.6-1.3,1.9-0.4,2.8c0.6,0.5,1.3,0.9,2,1.4c1.2,0.8,2.5,1.4,3.7,2.2c3.3,2.3,2.8,6.8,1,8.8
		c-1.1,1.3-2.5,2-4.2,2.2c-2.3,0.4-4.5,0.2-6.7-0.7c-0.7-0.3-0.7-0.3-0.7-1.1c0-1.1,0-2.1,0-3.2C-123.3,25.3-123.3,25.1-123.2,24.9z
		"/>
</g>
<path class="st0" d="M44.1,28.1c0,3.9,0,7.7,0,11.6c0,0.8,0.1,1.5,0.1,2.3c0,0.2-0.1,0.3-0.2,0.4c-1.3,0.6-2.7,1.1-4.2,1.3
	c-1,0.2-2,0.2-3,0.2c-2-0.1-3.8-0.5-5.5-1.7c-1.5-1.1-2.5-2.5-3.2-4.2c-0.4-1-0.6-2-0.7-3.1c-0.1-0.8-0.1-1.5-0.1-2.3
	c0.1-2.7,0.9-5.2,2.8-7.3c1.4-1.5,3.1-2.5,5.1-3c1.3-0.3,2.6-0.4,3.9-0.3c0.2,0,0.2,0,0.2-0.2c0-2.2,0-4.4,0-6.6
	c0-0.3,0-0.4,0.4-0.4c1.3,0,2.7,0,4,0c0.3,0,0.3,0,0.3,0.3C44.1,19.5,44.1,23.8,44.1,28.1z M39.4,32.9
	C39.4,32.9,39.4,32.9,39.4,32.9c0-2.1,0-4.1,0-6.2c0-0.4,0-0.4-0.4-0.5C38.4,26,37.7,26,37,26.1c-1.3,0.2-2.4,0.8-3.2,1.8
	c-0.9,1.1-1.4,2.5-1.5,4c-0.1,0.7-0.1,1.4,0,2.1c0.1,0.9,0.2,1.8,0.6,2.7c0.5,1.1,1.2,2.1,2.4,2.6c0.6,0.3,1.3,0.5,2,0.5
	c0.7,0,1.4,0,2.1-0.2c0.1,0,0.2-0.1,0.2-0.3C39.4,37.1,39.4,35,39.4,32.9z"/>
<path class="st0" d="M22.8,29.2c0,4.6,0,9.2,0,13.9c0,0.4,0,0.4-0.4,0.4c-1.3,0-2.5,0-3.8,0c-0.1,0-0.1,0-0.2,0
	c-0.1,0-0.2-0.1-0.2-0.2c0-0.1,0-0.1,0-0.2c0-9.2,0-18.4,0-27.6c0,0,0,0,0-0.1c0-0.3,0.1-0.4,0.4-0.4c1.3,0,2.6,0,3.9,0
	c0.3,0,0.4,0.1,0.4,0.4C22.8,19.9,22.8,24.6,22.8,29.2C22.8,29.2,22.8,29.2,22.8,29.2z"/>
</svg>
