<?xml version="1.0" encoding="utf-8"?>
<!-- Generator: Adobe Illustrator 22.0.1, SVG Export Plug-In . SVG Version: 6.00 Build 0)  -->
<svg version="1.1" id="Layer_1" xmlns="http://www.w3.org/2000/svg" xmlns:xlink="http://www.w3.org/1999/xlink" x="0px" y="0px"
	 viewBox="0 0 62.7 60.1" style="enable-background:new 0 0 62.7 60.1;" xml:space="preserve">
<style type="text/css">
	.st0{fill:#349AB5;}
</style>
<g>
	<g transform="translate(0.000000,618.000000) scale(0.100000,-0.100000)">
		<path class="st0" d="M364.2,6168c-15.1-20.8-22.6-37.7-25.6-57.7c-3.5-23.8,0.4-49.5,11.4-73.1c20.6-44.5,66.7-80.6,114.3-89.6
			c13-2.4,47-2.4,58.4,0.2c23.1,5,41.4,14.4,57.9,29.6c7.1,6.6,19.6,23,24.4,32l3.3,6.2l-5.7-6.2c-23.8-26.1-60-35.5-105.4-27.8
			c-35.2,6.1-64.3,21-89.2,45.4c-42.9,42.5-57.4,100.6-36.8,147.7c1.3,2.7,2.2,5.1,2,5.1C373,6180,368.9,6174.6,364.2,6168z"/>
		<path class="st0" d="M224.8,6126.1c-17.7-25-24.5-36.7-30.8-52.7c-13.4-34-15.4-76.6-5.4-116.1c6.4-25.1,16.8-47.8,33.2-72.5
			c10.5-15.8,14.8-21,28.6-34.8c31.7-31.8,66-53.2,107.2-66.7c33.4-10.9,85-12.3,126.2-3.4c56.2,12.2,102.8,46.6,131.3,97
			c4.7,8.1,11.4,22.9,11.4,24.8c0,0.6-2.3-1.9-4.9-5.4c-15.3-20.2-42.3-40.8-67.4-51.7c-28.7-12.4-56.6-17.5-90-16.4
			c-120.4,3.6-227.9,99.1-241.9,214.5c-4,33.2,2.6,73.1,16.8,101.3c1.6,3,2.7,5.6,2.6,5.6C241.6,6149.6,234,6139,224.8,6126.1z"/>
		<path class="st0" d="M61,6068c-24.2-30.7-28.9-37.5-37.2-54.2c-17.3-35.1-25.2-73.2-23.6-113.3c4.8-125.4,89.7-243.2,213.9-296.9
			c32.1-13.9,55.7-19.8,92.9-23.4c23.1-2.2,64.8-1.5,84.4,1.5c53.7,7.9,98.9,27,138.4,58.2c31.6,24.9,65.6,67.8,79.7,100.3l2.6,5.9
			l-4.7-5.4c-28.7-33.3-61.4-55.3-103.1-69.7c-31.7-10.9-61.5-15.6-99.3-15.6c-40.6,0-72.5,4.6-105.1,15.3
			c-44.4,14.5-85.7,37.5-121.9,67.7c-14.7,12.4-38.5,36.6-49.9,50.9c-40.6,50.8-64.2,107.2-70.4,169c-1.5,14.3-0.6,49.2,1.6,63
			c3.4,22.2,10.4,45.7,18.6,63.5c2.4,5,4.1,9.1,3.9,9.1C81.5,6093.7,72.2,6082.1,61,6068z"/>
	</g>
</g>
</svg>
