<?xml version="1.0" encoding="utf-8"?>
<!-- Generator: Adobe Illustrator 22.0.1, SVG Export Plug-In . SVG Version: 6.00 Build 0)  -->
<svg version="1.1" id="Layer_1" xmlns="http://www.w3.org/2000/svg" xmlns:xlink="http://www.w3.org/1999/xlink" x="0px" y="0px"
	 viewBox="0 0 484.3 86.1" style="enable-background:new 0 0 484.3 86.1;" xml:space="preserve">
<style type="text/css">
	.st0{fill:#349AB5;}
	.st1{fill:#FFFFFF;}
</style>
<title>icon-webdev</title>
<desc>Created with Sketch.</desc>
<path class="st0" d="M27.5,226.5H37l4.5,16l4.3-16h8.7l4.5,16l4.4-16h9l-9.1,25h-9.2L50,237.1l-4.2,14.4h-9.2L27.5,226.5z"/>
<path class="st0" d="M95,229.8c2.3,2.4,3.4,5.8,3.4,10c0,0.6,0,1.1,0,1.4H81.5c0.4,1.2,1,2.1,1.8,2.8c0.8,0.6,1.9,1,3.1,1
	c1.9,0,3.8-0.8,5.5-2.4l4.8,4.7c-1.3,1.5-2.9,2.6-4.8,3.4c-1.9,0.8-4,1.2-6.3,1.2c-2.8,0-5.2-0.5-7.2-1.6c-2-1.1-3.6-2.5-4.7-4.5
	c-1.1-1.9-1.6-4.1-1.6-6.7c0-2.6,0.6-4.8,1.7-6.8c1.1-1.9,2.7-3.5,4.6-4.5c2-1.1,4.3-1.6,6.9-1.6C89.5,226.1,92.7,227.4,95,229.8z
	 M88.2,233.6c-0.7-0.8-1.6-1.2-2.8-1.2c-1.1,0-2,0.4-2.7,1.1c-0.7,0.8-1.2,1.8-1.4,3.1h7.9C89.2,235.5,88.9,234.4,88.2,233.6z"/>
<path class="st0" d="M124.5,227.8c1.7,1.1,3.1,2.6,4.1,4.6c1,2,1.4,4.2,1.4,6.8c0,2.5-0.5,4.8-1.4,6.7c-0.9,1.9-2.3,3.4-4,4.4
	c-1.7,1-3.7,1.6-6,1.6c-1.5,0-2.8-0.3-4-0.8s-2.2-1.3-3.1-2.4v2.9h-9.3v-34.1h9.3v12c0.8-1,1.8-1.8,3-2.4c1.2-0.6,2.5-0.8,3.9-0.8
	C120.8,226.1,122.8,226.7,124.5,227.8z M119.4,242.9c0.8-1,1.2-2.4,1.2-4c0-1.7-0.4-3-1.2-4c-0.8-1-1.9-1.5-3.3-1.5
	c-1.3,0-2.4,0.5-3.3,1.5c-0.8,1-1.2,2.4-1.2,4c0,1.7,0.4,3,1.2,4c0.8,1,1.9,1.5,3.3,1.5C117.5,244.5,118.6,243.9,119.4,242.9z"/>
<path d="M172.1,227.3c1.3,0.8,2.4,1.9,3.1,3.3c0.7,1.4,1.1,3.1,1.1,5v15.9h-9.3v-13.2c0-1.2-0.3-2.2-0.9-2.9
	c-0.6-0.7-1.5-1.1-2.5-1.1c-1.2,0-2.1,0.5-2.9,1.4c-0.7,0.9-1.1,2.1-1.1,3.5v12.4h-9.3v-13.2c0-1.2-0.3-2.2-0.9-2.9
	s-1.5-1.1-2.5-1.1c-1.2,0-2.2,0.5-2.9,1.4c-0.7,0.9-1.1,2.1-1.1,3.5v12.4h-9.3v-25h9.3v3.8c0.9-1.3,1.9-2.4,3.3-3.1
	c1.3-0.7,2.8-1.1,4.5-1.1c1.9,0,3.6,0.5,5.1,1.4c1.4,1,2.5,2.3,3.2,4c0.8-1.7,1.9-3.1,3.4-4c1.5-0.9,3.2-1.4,5.1-1.4
	C169.3,226.1,170.8,226.5,172.1,227.3z"/>
<path d="M201.3,228.5c2,1.6,3,3.9,3,6.7v16.2h-9.1v-2.8c-0.8,1-1.8,1.8-3,2.3c-1.2,0.6-2.7,0.8-4.3,0.8c-2.6,0-4.7-0.7-6.2-2.1
	c-1.5-1.4-2.3-3.3-2.3-5.7c0-2.4,0.8-4.3,2.5-5.6s4-2,7.2-2h6.1v-0.1c0-1-0.4-1.9-1.1-2.4c-0.7-0.6-1.8-0.9-3.2-0.9
	c-1,0-2.2,0.2-3.5,0.5c-1.3,0.3-2.7,0.8-4,1.3l-2.3-6.2c4.2-1.7,8.2-2.6,12.1-2.6C196.6,226.1,199.4,226.9,201.3,228.5z
	 M193.5,245.1c0.8-0.5,1.3-1.1,1.7-1.9V241H191c-1.9,0-2.8,0.8-2.8,2.3c0,0.8,0.2,1.4,0.7,1.8c0.5,0.4,1.2,0.6,2.1,0.6
	C191.9,245.8,192.8,245.6,193.5,245.1z"/>
<path d="M225.2,251.5l-4.6-8.7l-1.9,2v6.7h-9.3v-34.1h9.3V234l6.9-7.5h10.5l-9.2,9.7l9.2,15.4H225.2z"/>
<path d="M258.6,229.8c2.3,2.4,3.4,5.8,3.4,10c0,0.6,0,1.1,0,1.4h-16.8c0.4,1.2,1,2.1,1.8,2.8c0.8,0.6,1.9,1,3.1,1
	c1.9,0,3.8-0.8,5.5-2.4l4.8,4.7c-1.3,1.5-2.9,2.6-4.8,3.4c-1.9,0.8-4,1.2-6.3,1.2c-2.8,0-5.2-0.5-7.2-1.6c-2-1.1-3.6-2.5-4.7-4.5
	c-1.1-1.9-1.6-4.1-1.6-6.7c0-2.6,0.6-4.8,1.7-6.8c1.1-1.9,2.7-3.5,4.6-4.5c2-1.1,4.3-1.6,6.9-1.6
	C253.1,226.1,256.3,227.4,258.6,229.8z M251.8,233.6c-0.7-0.8-1.6-1.2-2.8-1.2c-1.1,0-2,0.4-2.7,1.1c-0.7,0.8-1.2,1.8-1.4,3.1h7.9
	C252.9,235.5,252.5,234.4,251.8,233.6z"/>
<path d="M278.3,227.2c1.3-0.8,2.8-1.1,4.5-1.1v8.4c-0.4-0.1-0.9-0.1-1.6-0.1c-1.9,0-3.5,0.5-4.6,1.4c-1.1,0.9-1.7,2.2-1.7,3.8v12
	h-9.3v-25h9.3v4C275.9,229,277,228,278.3,227.2z"/>
<rect width="484.3" height="86.1"/>
<g>
	<path class="st1" d="M57.1,30.9v24.9h-8.2v-4c-1.7,2.9-4.3,4.4-8,4.4c-2.7,0-4.9-0.9-6.5-2.6c-1.6-1.7-2.4-4-2.4-6.9V30.9h8.2v13.4
		c0,1.4,0.4,2.5,1.1,3.3c0.7,0.8,1.7,1.2,2.9,1.2c1.4,0,2.6-0.6,3.4-1.6c0.8-1,1.2-2.4,1.2-4V30.9H57.1z"/>
	<path class="st1" d="M74.9,31.7c1.4-0.8,2.9-1.1,4.7-1.1v7.5c-0.3,0-0.7,0-1.2,0c-1.9,0-3.5,0.5-4.7,1.4c-1.2,0.9-1.9,2.1-2.1,3.7
		v12.7h-8.2V30.9h8.2v4.1C72.4,33.6,73.5,32.5,74.9,31.7z"/>
	<path class="st1" d="M91.8,36.2c-0.7,0-1.3,0.1-1.7,0.4c-0.4,0.3-0.6,0.7-0.6,1.2c0,0.6,0.3,1,1,1.3c0.7,0.3,1.7,0.7,3.2,1.1
		c1.8,0.5,3.3,1,4.4,1.5c1.2,0.5,2.2,1.3,3.1,2.3c0.9,1,1.3,2.4,1.3,4c0,2.5-1,4.5-2.9,5.9c-1.9,1.4-4.5,2.1-7.6,2.1
		c-2.1,0-4.1-0.3-6.1-0.9c-1.9-0.6-3.6-1.5-5.2-2.6l2.6-5.3c1.4,1,2.9,1.7,4.4,2.3c1.5,0.5,3,0.8,4.4,0.8c0.8,0,1.4-0.1,1.9-0.4
		c0.5-0.3,0.7-0.6,0.7-1.1c0-0.6-0.3-1.1-1-1.4c-0.7-0.3-1.8-0.7-3.2-1.1c-1.7-0.5-3.2-1-4.3-1.5c-1.1-0.5-2.1-1.3-3-2.3
		c-0.8-1-1.3-2.3-1.3-4c0-2.5,1-4.5,2.9-5.9c1.9-1.4,4.4-2.1,7.4-2.1c1.8,0,3.6,0.2,5.4,0.7c1.8,0.5,3.4,1.2,5,2.2l-2.8,5.3
		C96.5,37.1,93.9,36.2,91.8,36.2z"/>
	<path class="st1" d="M105.8,30.9l21.8,0v5l-12,13.6H128v6.3h-22.7v-5l12-13.6h-11.5V30.9z"/>
	<path class="st1" d="M156.8,30.9v24.9h-8.2v-4c-1.7,2.9-4.3,4.4-8,4.4c-2.7,0-4.9-0.9-6.5-2.6c-1.6-1.7-2.4-4-2.4-6.9V30.9h8.2
		v13.4c0,1.4,0.4,2.5,1.1,3.3c0.7,0.8,1.7,1.2,2.9,1.2c1.4,0,2.6-0.6,3.4-1.6c0.8-1,1.2-2.4,1.2-4V30.9H156.8z"/>
	<path class="st1" d="M163.2,21.7h8.2v34.1h-8.2V21.7z"/>
	<path class="st1" d="M197.1,33c1.9,1.6,2.9,3.8,2.9,6.6v16.2h-8V53c-1.7,2.1-4.2,3.2-7.5,3.2c-2.6,0-4.7-0.7-6.2-2.1
		c-1.5-1.4-2.3-3.3-2.3-5.6c0-2.4,0.8-4.2,2.5-5.5c1.6-1.3,4-2,7.1-2h6.5v-0.3c0-1.2-0.4-2.1-1.2-2.8c-0.8-0.6-2-1-3.5-1
		c-1,0-2.2,0.2-3.5,0.5c-1.3,0.3-2.6,0.8-3.9,1.5l-2.3-5.5c2-0.9,4-1.6,5.8-2c1.9-0.4,3.8-0.7,5.8-0.7
		C192.6,30.6,195.2,31.4,197.1,33z M190.2,49.7c0.9-0.6,1.5-1.4,1.7-2.3v-2.2h-4.9c-2.3,0-3.5,0.9-3.5,2.6c0,0.9,0.3,1.5,0.9,2
		c0.6,0.5,1.4,0.8,2.5,0.8C188.2,50.6,189.3,50.3,190.2,49.7z"/>
	<path class="st0" d="M201.9,30.9h8.3l5,16.8l4.9-16.8h7.8l4.9,16.8l5-16.8h8l-9.1,24.9h-8.1l-4.7-15.4L219,55.8h-8.1L201.9,30.9z"
		/>
	<path class="st0" d="M268,34.2c2.2,2.4,3.3,5.7,3.3,9.8c0,0.6,0,1.1,0,1.5h-17.3c0.4,1.4,1.1,2.5,2.1,3.2c1,0.8,2.2,1.1,3.6,1.1
		c1.1,0,2.1-0.2,3.1-0.6c1-0.4,1.9-1.1,2.7-1.9l4.3,4.3c-1.3,1.4-2.8,2.5-4.7,3.3c-1.8,0.8-3.9,1.1-6.2,1.1c-2.7,0-5-0.5-7-1.6
		c-2-1-3.5-2.5-4.6-4.4c-1.1-1.9-1.6-4.1-1.6-6.6c0-2.5,0.5-4.8,1.6-6.7c1.1-1.9,2.6-3.5,4.6-4.5c2-1.1,4.2-1.6,6.8-1.6
		C262.7,30.6,265.8,31.8,268,34.2z M263.3,41.2c0-1.4-0.4-2.6-1.3-3.5c-0.8-0.9-2-1.3-3.3-1.3c-1.3,0-2.4,0.4-3.2,1.3
		c-0.9,0.9-1.4,2-1.7,3.5H263.3z"/>
	<path class="st0" d="M297.3,32.2c1.7,1.1,3.1,2.6,4.1,4.5c1,1.9,1.4,4.2,1.4,6.7c0,2.5-0.5,4.7-1.4,6.6c-0.9,1.9-2.3,3.4-4,4.4
		c-1.7,1-3.7,1.6-6,1.6c-1.6,0-3-0.3-4.3-0.9c-1.3-0.6-2.4-1.5-3.2-2.6v3.2h-8.2V21.7h8.2v12.5c1.8-2.3,4.2-3.5,7.3-3.5
		C293.5,30.6,295.5,31.2,297.3,32.2z M293.1,47.7c1-1.1,1.5-2.6,1.5-4.5c0-1.8-0.5-3.3-1.5-4.5s-2.3-1.7-3.9-1.7
		c-1.6,0-2.8,0.6-3.8,1.7s-1.5,2.6-1.5,4.5c0,1.8,0.5,3.3,1.5,4.5s2.3,1.7,3.8,1.7C290.8,49.4,292.1,48.9,293.1,47.7z"/>
	<path class="st0" d="M346.7,33.2c1.6,1.7,2.4,4,2.4,6.9v15.7H341V42.5c0-1.4-0.4-2.5-1.1-3.3c-0.7-0.8-1.7-1.2-3-1.2
		c-1.4,0-2.6,0.6-3.4,1.6c-0.8,1-1.3,2.4-1.3,4v12.3H324V42.5c0-1.4-0.4-2.5-1.1-3.3s-1.7-1.2-3-1.2c-1.4,0-2.6,0.6-3.5,1.6
		c-0.9,1-1.3,2.4-1.3,4v12.3H307V30.9h8.1V35c0.9-1.4,2-2.5,3.3-3.3c1.4-0.8,3-1.1,4.8-1.1c2,0,3.8,0.5,5.2,1.5
		c1.4,1,2.5,2.3,3.1,4.1c0.8-1.8,1.9-3.2,3.4-4.2c1.5-0.9,3.2-1.4,5.3-1.4C342.9,30.6,345.1,31.4,346.7,33.2z"/>
	<path class="st0" d="M374,33c1.9,1.6,2.9,3.8,2.9,6.6v16.2h-8V53c-1.7,2.1-4.2,3.2-7.5,3.2c-2.6,0-4.7-0.7-6.2-2.1
		c-1.5-1.4-2.3-3.3-2.3-5.6c0-2.4,0.8-4.2,2.5-5.5c1.6-1.3,4-2,7.1-2h6.5v-0.3c0-1.2-0.4-2.1-1.2-2.8c-0.8-0.6-2-1-3.5-1
		c-1,0-2.2,0.2-3.5,0.5c-1.3,0.3-2.6,0.8-3.9,1.5l-2.3-5.5c2-0.9,4-1.6,5.8-2c1.9-0.4,3.8-0.7,5.8-0.7C369.4,30.6,372.1,31.4,374,33
		z M367.1,49.7c0.9-0.6,1.5-1.4,1.7-2.3v-2.2h-4.9c-2.3,0-3.5,0.9-3.5,2.6c0,0.9,0.3,1.5,0.9,2c0.6,0.5,1.4,0.8,2.5,0.8
		C365.1,50.6,366.1,50.3,367.1,49.7z"/>
	<path class="st0" d="M398.6,55.8l-5.2-9.4l-2.5,2.6v6.8h-8.2V21.7h8.2v17.7l8-8.4h9.3l-9.1,9.6l9.3,15.3H398.6z"/>
	<path class="st0" d="M430.5,34.2c2.2,2.4,3.3,5.7,3.3,9.8c0,0.6,0,1.1,0,1.5h-17.3c0.4,1.4,1.1,2.5,2.1,3.2c1,0.8,2.2,1.1,3.6,1.1
		c1.1,0,2.1-0.2,3.1-0.6c1-0.4,1.9-1.1,2.7-1.9l4.3,4.3c-1.3,1.4-2.8,2.5-4.7,3.3c-1.8,0.8-3.9,1.1-6.2,1.1c-2.7,0-5-0.5-7-1.6
		c-2-1-3.5-2.5-4.6-4.4c-1.1-1.9-1.6-4.1-1.6-6.6c0-2.5,0.5-4.8,1.6-6.7c1.1-1.9,2.6-3.5,4.6-4.5c2-1.1,4.2-1.6,6.8-1.6
		C425.2,30.6,428.3,31.8,430.5,34.2z M425.8,41.2c0-1.4-0.4-2.6-1.3-3.5c-0.8-0.9-2-1.3-3.3-1.3c-1.3,0-2.4,0.4-3.2,1.3
		c-0.9,0.9-1.4,2-1.7,3.5H425.8z"/>
	<path class="st0" d="M449.5,31.7c1.4-0.8,2.9-1.1,4.7-1.1v7.5c-0.3,0-0.7,0-1.2,0c-1.9,0-3.5,0.5-4.7,1.4c-1.2,0.9-1.9,2.1-2.1,3.7
		v12.7h-8.2V30.9h8.2v4.1C447,33.6,448.1,32.5,449.5,31.7z"/>
</g>
<rect y="108" width="484.3" height="86.1"/>
<rect x="16.6" y="129.7" style="fill:none;" width="451" height="41"/>
<text transform="matrix(1 0 0 1 28.5051 163.7924)"><tspan x="0" y="0" class="st1" style="font-family:'Montserrat-Bold'; font-size:46px;">urszula</tspan><tspan x="172.7" y="0" class="st0" style="font-family:'Montserrat-Bold'; font-size:46px;">webmaker</tspan></text>
</svg>
