<?xml version="1.0" encoding="utf-8"?>
<!-- Generator: Adobe Illustrator 22.0.1, SVG Export Plug-In . SVG Version: 6.00 Build 0)  -->
<svg version="1.1" id="Layer_1" xmlns="http://www.w3.org/2000/svg" xmlns:xlink="http://www.w3.org/1999/xlink" x="0px" y="0px"
	 viewBox="0 0 494 512" style="enable-background:new 0 0 494 512;" xml:space="preserve">
<style type="text/css">
	.st0{fill:#349AB5;}
</style>
<path class="st0" d="M18.5,162.2L0,187.1h90.5l6.9-130.7L18.5,162.2L18.5,162.2z M387.3,45.7L258.7,32l135.7,147.2L387.3,45.7
	L387.3,45.7z M103.2,218.3l-11.2-22H0.9L225.8,458L103.2,218.3z M105.2,187.1h284l-81.5-88.5L247.3,33L105.2,187.1z M402.5,196.2
	L268.6,458l224.8-261.7L402.5,196.2L402.5,196.2z M406.4,69L397,56.4l0.9,17.3l6.1,113.4h90.3L406.4,69z M104.5,93.5l-4.6,85.6
	L235.7,32L107.1,45.7L104.5,93.5z M392.2,196.2h-290l42.4,82.9L247.3,480L392.2,196.2L392.2,196.2z"/>
</svg>
